<?xml version="1.0" encoding="UTF-8"?>
<svg version="1.1" xmlns="http://www.w3.org/2000/svg" width="512" height="512">
<path d="M0 0 C0.8863765 -0.00978378 1.77275299 -0.01956757 2.68598938 -0.02964783 C5.62829073 -0.05963533 8.57054644 -0.08099847 11.51293945 -0.09985352 C12.51736399 -0.10642534 13.52178852 -0.11299717 14.55665016 -0.11976814 C19.87499203 -0.1523791 25.19331374 -0.17682372 30.51171875 -0.19628906 C34.91273188 -0.21409376 39.31310327 -0.24889838 43.71386719 -0.29882812 C49.02657214 -0.35903719 54.33868252 -0.3897663 59.65171242 -0.39946175 C61.67511724 -0.40801786 63.69850612 -0.4268398 65.72171593 -0.45620537 C68.5586689 -0.49515895 71.39331138 -0.49614943 74.23046875 -0.48828125 C75.06242767 -0.50828186 75.8943866 -0.52828247 76.7515564 -0.54888916 C82.29676805 -0.48005185 85.11416873 0.90604073 89.13354206 4.7254324 C92.24379205 8.26016553 91.91796064 12.06456832 91.88012695 16.58569336 C91.01514022 23.68547388 87.85212463 29.98969 84.9387207 36.45874023 C84.3104173 37.8966695 83.68409974 39.33546818 83.05981445 40.77514648 C81.54212856 44.26344401 79.99816154 47.73892056 78.4387207 51.20874023 C79.56922852 51.39307617 80.69973633 51.57741211 81.86450195 51.76733398 C121.02977743 58.61556757 157.42009478 76.29111505 187.4387207 102.20874023 C188.33719727 102.97702148 189.23567383 103.74530273 190.16137695 104.53686523 C192.63871263 106.71208681 195.04787613 108.93871935 197.4387207 111.20874023 C197.96675293 111.70954102 198.49478516 112.2103418 199.03881836 112.72631836 C207.68050008 120.98062274 215.3353101 129.60648012 222.4387207 139.20874023 C222.86636719 139.77560547 223.29401367 140.3424707 223.73461914 140.92651367 C230.49943754 149.90359668 236.26368912 159.23310337 241.4387207 169.20874023 C241.87861328 170.05581543 242.31850586 170.90289062 242.77172852 171.77563477 C253.96434301 193.60789997 261.40099665 216.00197753 265.4387207 240.20874023 C265.62418457 241.29880371 265.80964844 242.38886719 266.00073242 243.51196289 C267.67785963 254.49183495 267.83717742 265.37070297 267.8137207 276.45874023 C267.81290497 277.91139786 267.81290497 277.91139786 267.81207275 279.3934021 C267.77108054 295.31100662 266.84570857 310.6076398 263.4387207 326.20874023 C263.11726074 327.69591553 263.11726074 327.69591553 262.78930664 329.21313477 C258.31103391 349.23499021 251.14649543 368.15568548 241.4387207 386.20874023 C241.09760254 386.85617187 240.75648438 387.50360352 240.4050293 388.1706543 C231.93715263 404.19138788 221.50483373 418.71006342 209.4387207 432.20874023 C208.94871582 432.76045898 208.45871094 433.31217773 207.95385742 433.88061523 C182.99914452 461.8594126 151.44386663 482.17405429 116.4387207 495.20874023 C115.44122803 495.58192383 115.44122803 495.58192383 114.42358398 495.96264648 C103.36006859 500.03760611 91.97160879 502.82937204 80.4387207 505.20874023 C79.64304687 505.37680176 78.84737305 505.54486328 78.02758789 505.71801758 C49.79656685 511.38654344 17.48101474 510.26620766 -10.5612793 504.20874023 C-12.05280518 503.88728027 -12.05280518 503.88728027 -13.57446289 503.55932617 C-33.59251118 499.08044678 -52.51149096 491.91475849 -70.5612793 482.20874023 C-71.20871094 481.86762207 -71.85614258 481.52650391 -72.52319336 481.17504883 C-88.53344905 472.71271033 -103.09319058 462.29662147 -116.5612793 450.20874023 C-117.45339111 449.40919922 -117.45339111 449.40919922 -118.36352539 448.59350586 C-125.16166391 442.46610752 -131.80069282 436.34148357 -137.5612793 429.20874023 C-138.4593918 428.13424975 -139.35786437 427.06006018 -140.2565918 425.98608398 C-164.30021489 396.9372861 -180.23919242 363.09434032 -188.3737793 326.33374023 C-188.56866943 325.45621094 -188.76355957 324.57868164 -188.96435547 323.67456055 C-192.08900552 308.75225646 -192.97031448 294.09380835 -192.9362793 278.89624023 C-192.93573547 277.97798462 -192.93519165 277.059729 -192.93463135 276.11364746 C-192.8710528 252.66282711 -189.62034638 230.61847699 -182.5612793 208.20874023 C-182.32683105 207.45979492 -182.09238281 206.71084961 -181.85083008 205.93920898 C-172.12127647 175.4528166 -155.85767627 148.01792158 -134.5612793 124.20874023 C-134.06063965 123.64638672 -133.56 123.0840332 -133.04418945 122.50463867 C-127.21992062 115.99183131 -121.31146367 109.77668893 -114.5612793 104.20874023 C-113.36438477 103.14526367 -113.36438477 103.14526367 -112.14331055 102.06030273 C-85.37183474 78.72494019 -40.45994291 51.20874023 -3.5612793 51.20874023 C-3.95508789 50.3325 -4.34889648 49.45625977 -4.75463867 48.5534668 C-6.2307905 45.25308741 -7.67713012 41.94029855 -9.11547852 38.62329102 C-9.73813929 37.19827543 -10.36849179 35.7765921 -11.00708008 34.35864258 C-18.51517804 17.65695528 -18.51517804 17.65695528 -16.5612793 8.20874023 C-12.2404081 0.90382498 -8.15770963 0.05648816 0 0 Z M19.4387207 28.20874023 C21.4036805 34.10361962 23.41145032 39.81100452 25.79418945 45.52514648 C26.10068924 46.26707748 26.40718903 47.00900848 26.72297668 47.77342224 C27.68785799 50.10722727 28.65695469 52.43925335 29.6262207 54.77124023 C30.28730959 56.36812889 30.94811931 57.96513316 31.60864258 59.56225586 C33.21545046 63.4457587 34.82603725 67.32767385 36.4387207 71.20874023 C37.0987207 71.20874023 37.7587207 71.20874023 38.4387207 71.20874023 C40.86472206 65.40838527 43.2852393 59.6057647 45.7019043 53.80151367 C46.5251773 51.82604849 47.34971798 49.85111114 48.17553711 47.87670898 C49.36033148 45.0434432 50.54059742 42.20832861 51.7199707 39.37280273 C52.09182495 38.48630035 52.4636792 37.59979797 52.84680176 36.68643188 C53.18715454 35.86573212 53.52750732 35.04503235 53.87817383 34.19946289 C54.33117859 33.11358383 54.33117859 33.11358383 54.79333496 32.00576782 C55.55138851 30.21325959 55.55138851 30.21325959 55.4387207 28.20874023 C43.5587207 28.20874023 31.6787207 28.20874023 19.4387207 28.20874023 Z M-2.37768555 80.48608398 C-4.01833984 80.88537109 -4.01833984 80.88537109 -5.69213867 81.29272461 C-6.82458008 81.57438477 -7.95702148 81.85604492 -9.1237793 82.14624023 C-10.82824219 82.56292969 -10.82824219 82.56292969 -12.56713867 82.98803711 C-16.90161162 84.04927975 -21.23244061 85.12476356 -25.5612793 86.20874023 C-24.86962029 90.73302318 -23.24065954 94.7651095 -21.4909668 98.96264648 C-21.17830368 99.72269485 -20.86564056 100.48274323 -20.54350281 101.26582336 C-19.51217285 103.76947479 -18.47431337 106.27036178 -17.4362793 108.77124023 C-16.70800214 110.53493815 -15.98006106 112.29877487 -15.25244141 114.06274414 C-13.02910236 119.44767516 -10.79658072 124.82876546 -8.5612793 130.20874023 C-8.23222595 131.00088928 -7.90317261 131.79303833 -7.56414795 132.60919189 C-4.81828198 139.21777616 -2.06894746 145.82490263 0.69189453 152.42724609 C4.18230669 160.77642688 7.64718259 169.13551479 11.0871582 177.50561523 C12.25908031 180.35178318 13.43138035 183.19779518 14.60379028 186.04376221 C15.36475936 187.89405916 16.12395458 189.7450867 16.88131714 191.59686279 C17.93378316 194.16985596 18.99226446 196.74029772 20.05200195 199.31030273 C20.3658786 200.08243103 20.67975525 200.85455933 21.00314331 201.65008545 C22.69006041 205.76443041 22.69006041 205.76443041 25.4387207 209.20874023 C28.0602849 209.48701275 28.0602849 209.48701275 31.1027832 209.40405273 C32.78500977 209.39438477 32.78500977 209.39438477 34.5012207 209.38452148 C35.6768457 209.36776367 36.8524707 209.35100586 38.0637207 209.33374023 C39.24708008 209.3247168 40.43043945 209.31569336 41.6496582 209.30639648 C44.57954593 209.28276836 47.50903411 209.24982538 50.4387207 209.20874023 C57.87565496 192.08794083 65.07454499 174.87994097 72.13720703 157.60180664 C72.82100172 155.92910018 73.50484001 154.25641154 74.1887207 152.58374023 C74.53130417 151.74579926 74.87388763 150.90785828 75.22685242 150.04452515 C79.32753229 140.02333812 83.47573795 130.02187967 87.6262207 120.02124023 C87.98420746 119.15842438 88.34219421 118.29560852 88.71102905 117.40664673 C89.40592472 115.73194033 90.10098337 114.05730155 90.79621887 112.38273621 C91.45124893 110.80453671 92.10571701 109.22610382 92.75956726 107.64741516 C94.16772214 104.25067935 95.58363009 100.85829713 97.03491211 97.47973633 C97.49430176 96.4041748 97.95369141 95.32861328 98.42700195 94.22045898 C98.82056885 93.31126709 99.21413574 92.4020752 99.61962891 91.46533203 C100.60931866 89.13885238 100.60931866 89.13885238 100.4387207 86.20874023 C96.83856505 85.21442017 93.23301166 84.24118956 89.6262207 83.27124023 C88.62139648 82.99344727 87.61657227 82.7156543 86.58129883 82.42944336 C79.86241097 80.63629965 73.38214729 79.59872408 66.4387207 79.20874023 C61.84325185 87.89515737 58.19979476 96.9390156 54.59277344 106.06616211 C53.83040197 107.98984528 53.05542432 109.90805839 52.27856445 111.82592773 C51.82860107 112.95627441 51.3786377 114.08662109 50.91503906 115.2512207 C49.41106606 118.26414098 48.02122293 120.07134558 45.4387207 122.20874023 C40.21917318 123.94858941 34.5936529 124.12573266 29.5012207 121.95874023 C24.94235628 118.09061284 23.09454697 113.39428504 20.8996582 107.97827148 C20.57333405 107.18724533 20.24700989 106.39621918 19.91079712 105.58122253 C18.87300527 103.06342184 17.84292912 100.54256038 16.8137207 98.02124023 C15.77624519 95.48969442 14.73713836 92.95884388 13.69522095 90.42912292 C13.04798149 88.85665433 12.40351789 87.28303984 11.76205444 85.70820618 C10.518965 82.20256494 10.518965 82.20256494 8.4387207 79.20874023 C4.62167526 78.96167268 1.32106616 79.57598576 -2.37768555 80.48608398 Z M-107.8737793 137.27124023 C-112.43083684 141.9827743 -116.5323149 147.0435687 -120.5612793 152.20874023 C-120.98812012 152.75385254 -121.41496094 153.29896484 -121.85473633 153.8605957 C-135.44043975 169.82677152 -135.44043975 169.82677152 -142.5612793 188.20874023 C-118.40940419 198.34930215 -94.24198402 208.45018804 -70.01245117 218.40405273 C-61.28377944 221.99344095 -52.57240887 225.61155909 -43.9128418 229.36499023 C-42.45165957 229.99432823 -40.99039928 230.62348505 -39.52905273 231.25244141 C-36.87608084 232.39463914 -34.23273704 233.55595398 -31.59350586 234.72949219 C-30.44591797 235.22408936 -29.29833008 235.71868652 -28.1159668 236.22827148 C-27.13096191 236.66244385 -26.14595703 237.09661621 -25.13110352 237.54394531 C-22.59631041 238.45170525 -22.59631041 238.45170525 -20.31445312 237.43652344 C-18.28840798 236.01764291 -16.92681058 234.50873209 -15.3737793 232.58374023 C-11.49867995 227.98416579 -7.13029599 224.10431909 -2.5612793 220.20874023 C-4.60727999 213.75206578 -7.00220833 207.51084549 -9.6315918 201.27124023 C-10.02523926 200.32958008 -10.41888672 199.38791992 -10.82446289 198.41772461 C-12.10884926 195.34684617 -13.39760136 192.27781988 -14.6862793 189.20874023 C-16.04104048 185.9720816 -17.39464825 182.73494201 -18.7482605 179.49780273 C-19.66806292 177.29842338 -20.58825163 175.09920553 -21.50881958 172.90014648 C-25.9261362 162.34660709 -30.309486 151.77913494 -34.6862793 141.20874023 C-36.06232702 137.88702023 -37.43869114 134.56543141 -38.81518555 131.24389648 C-39.13725479 130.4666774 -39.45932404 129.68945831 -39.79115295 128.88868713 C-44.03256642 118.65567017 -48.29340263 108.43074691 -52.5612793 98.20874023 C-69.88155437 98.20874023 -95.96351337 125.73684068 -107.8737793 137.27124023 Z M127.4387207 98.20874023 C117.29815878 122.36061534 107.1972729 146.52803551 97.2434082 170.75756836 C93.65401999 179.48624009 90.03590185 188.19761066 86.2824707 196.85717773 C85.65313271 198.31835997 85.02397588 199.77962025 84.39501953 201.2409668 C83.2528218 203.89393869 82.09150696 206.5372825 80.91796875 209.17651367 C80.42337158 210.32410156 79.92877441 211.47168945 79.41918945 212.65405273 C78.98501709 213.63905762 78.55084473 214.6240625 78.10351562 215.63891602 C77.19575569 218.17370913 77.19575569 218.17370913 78.2109375 220.45556641 C79.62981802 222.48161155 81.13872884 223.84320895 83.0637207 225.39624023 C87.66329514 229.27133958 91.54314184 233.63972354 95.4387207 238.20874023 C101.83468332 236.17995696 108.01976407 233.81573742 114.20043945 231.20874023 C115.12865509 230.82047058 116.05687073 230.43220093 117.01321411 230.03216553 C119.01123336 229.19605262 121.00865287 228.35850533 123.00552368 227.51965332 C128.36338281 225.26897419 133.72559349 223.028699 139.0871582 220.78686523 C140.18919083 220.32572327 141.29122345 219.8645813 142.426651 219.38946533 C154.96135833 214.14720229 167.52153414 208.96687595 180.08407593 203.79174805 C192.55917584 198.65243644 205.01161502 193.46311227 217.4387207 188.20874023 C216.31297654 184.61179575 215.13887678 181.36943601 213.1887207 178.14233398 C212.75052002 177.41626953 212.31231934 176.69020508 211.86083984 175.94213867 C211.15689087 174.80566895 211.15689087 174.80566895 210.4387207 173.64624023 C209.70286743 172.45369629 209.70286743 172.45369629 208.95214844 171.23706055 C204.54354188 164.19747704 199.74367133 157.60634081 194.4387207 151.20874023 C193.94694336 150.61544922 193.45516602 150.0221582 192.94848633 149.41088867 C184.17435098 138.89183432 175.19615216 129.74483195 164.4387207 121.20874023 C163.42551758 120.39018555 162.41231445 119.57163086 161.3684082 118.72827148 C154.02661255 112.87188248 146.3565127 107.87991174 138.20532227 103.22143555 C136.96728705 102.51173819 135.73532108 101.79139691 134.50805664 101.06323242 C131.19916063 98.93184606 131.19916063 98.93184606 127.4387207 98.20874023 Z M-154.5612793 215.20874023 C-165.26677106 253.37659731 -167.60204072 291.8077078 -157.5612793 330.45874023 C-157.187854 331.90035522 -157.187854 331.90035522 -156.80688477 333.37109375 C-156.56083496 334.25079834 -156.31478516 335.13050293 -156.0612793 336.03686523 C-155.8447168 336.81964844 -155.6281543 337.60243164 -155.4050293 338.40893555 C-154.98737305 339.29983887 -154.98737305 339.29983887 -154.5612793 340.20874023 C-150.46935862 341.57271379 -148.95161329 340.37743848 -145.01049805 338.69311523 C-144.3414595 338.41070984 -143.67242096 338.12830444 -142.98310852 337.83734131 C-141.51430178 337.21606725 -140.04735442 336.59038385 -138.58203125 335.9609375 C-135.37631374 334.58399176 -132.1618673 333.22797436 -128.94802856 331.87011719 C-127.2161662 331.13801145 -125.48479402 330.40474521 -123.75387573 329.67041016 C-114.357151 325.6861263 -104.92128763 321.79804154 -95.48342896 317.91244507 C-90.62757807 315.91220146 -85.77424618 313.90586383 -80.9206543 311.90014648 C-75.29483129 309.57561846 -69.66854999 307.252235 -64.03979492 304.93481445 C-59.75499752 303.17065439 -55.47211764 301.40192136 -51.19067383 299.62963867 C-49.61621841 298.97891977 -48.04103219 298.32996603 -46.46508789 297.68286133 C-44.31293895 296.79891818 -42.16339705 295.9089171 -40.0144043 295.01733398 C-38.80945313 294.52031982 -37.60450195 294.02330566 -36.36303711 293.51123047 C-33.49793497 292.37414255 -33.49793497 292.37414255 -31.5612793 290.20874023 C-31.28300678 287.58717604 -31.28300678 287.58717604 -31.3659668 284.54467773 C-31.37241211 283.42319336 -31.37885742 282.30170898 -31.38549805 281.14624023 C-31.40225586 279.97061523 -31.41901367 278.79499023 -31.4362793 277.58374023 C-31.44530273 276.40038086 -31.45432617 275.21702148 -31.46362305 273.99780273 C-31.48725117 271.06791501 -31.52019416 268.13842683 -31.5612793 265.20874023 C-48.6820787 257.77180597 -65.89007856 250.57291595 -83.16821289 243.51025391 C-84.84091936 242.82645922 -86.51360799 242.14262092 -88.1862793 241.45874023 C-89.44319077 240.94486504 -89.44319077 240.94486504 -90.72549438 240.42060852 C-100.74668141 236.31992865 -110.74813986 232.17172298 -120.7487793 228.02124023 C-122.04300308 227.4842601 -122.04300308 227.4842601 -123.3633728 226.93643188 C-125.0380792 226.24153621 -126.71271798 225.54647756 -128.38728333 224.85124207 C-129.96548282 224.19621201 -131.54391571 223.54174393 -133.12260437 222.88789368 C-136.51934019 221.4797388 -139.9117224 220.06383085 -143.2902832 218.61254883 C-144.36584473 218.15315918 -145.44140625 217.69376953 -146.54956055 217.22045898 C-147.45875244 216.82689209 -148.36794434 216.4333252 -149.3046875 216.02783203 C-151.63116715 215.03814228 -151.63116715 215.03814228 -154.5612793 215.20874023 Z M219.88793945 217.82202148 C219.21890091 218.10301193 218.54986237 218.38400238 217.86054993 218.67350769 C216.39255242 219.290693 214.92557113 219.91029952 213.45947266 220.53198242 C210.25133378 221.89217691 207.03829915 223.24062083 203.82546997 224.58969116 C202.09384854 225.31684884 200.36247038 226.04458605 198.63131714 226.77285767 C189.2258683 230.72698078 179.79400524 234.61652901 170.36087036 238.50402832 C165.50549164 240.50575078 160.65188643 242.51176476 155.7980957 244.51733398 C150.17226214 246.84183651 144.54599144 249.16524545 138.91723633 251.48266602 C134.63243893 253.24682608 130.34955904 255.01555911 126.06811523 256.7878418 C124.49365982 257.4385607 122.9184736 258.08751444 121.3425293 258.73461914 C119.19038035 259.61856229 117.04083846 260.50856337 114.8918457 261.40014648 C113.68689453 261.89716064 112.48194336 262.3941748 111.24047852 262.90625 C108.37537638 264.04333792 108.37537638 264.04333792 106.4387207 266.20874023 C106.16044818 268.83030443 106.16044818 268.83030443 106.2434082 271.87280273 C106.24985352 272.99428711 106.25629883 274.11577148 106.26293945 275.27124023 C106.27969727 276.44686523 106.29645508 277.62249023 106.3137207 278.83374023 C106.32274414 280.01709961 106.33176758 281.20045898 106.34106445 282.41967773 C106.36469258 285.34956546 106.39763556 288.27905364 106.4387207 291.20874023 C123.55952011 298.64567449 140.76751996 305.84456452 158.0456543 312.90722656 C159.71836076 313.59102125 161.3910494 314.27485955 163.0637207 314.95874023 C164.32063217 315.47261543 164.32063217 315.47261543 165.60293579 315.99687195 C175.62412282 320.09755182 185.62558127 324.24575749 195.6262207 328.39624023 C196.48903656 328.75422699 197.35185242 329.11221375 198.24081421 329.48104858 C199.91554942 330.17595621 201.59018901 330.87109434 203.26472473 331.56648254 C204.84269323 332.2212565 206.42111924 332.87492918 208.00004578 333.52738953 C211.40293599 334.93550516 214.79692824 336.35660031 218.16772461 337.84008789 C219.24328613 338.30850098 220.31884766 338.77691406 221.42700195 339.25952148 C222.79078979 339.86727417 222.79078979 339.86727417 224.18212891 340.48730469 C226.56614683 341.49409815 226.56614683 341.49409815 229.4387207 340.20874023 C230.43736099 337.50205969 231.22675648 334.93002034 231.9387207 332.14624023 C232.15302734 331.34001221 232.36733398 330.53378418 232.58813477 329.703125 C236.0840344 316.23494757 238.53186808 302.61545661 238.67700195 288.67749023 C238.68675049 287.89198288 238.69649902 287.10647552 238.70654297 286.29716492 C238.94945557 261.63865154 236.80991642 238.86302813 229.4387207 215.20874023 C225.68279103 215.20874023 223.35496181 216.35544612 219.88793945 217.82202148 Z M7.5012207 248.27124023 C-1.79514619 258.60842175 -4.43878816 271.53421897 -3.7878418 284.95727539 C-2.72565895 295.51271742 4.33472142 305.24481129 12.37231445 311.82592773 C22.94523228 318.90118844 34.02175907 320.43640593 46.4387207 319.20874023 C56.77660958 316.66420467 66.07561377 310.28627135 72.0871582 301.47045898 C78.73736686 290.34193062 80.64199398 278.84652222 77.73950195 266.15014648 C76.82256344 263.67015667 75.7664623 261.49311553 74.4387207 259.20874023 C74.00301758 258.43272461 73.56731445 257.65670898 73.1184082 256.85717773 C66.78589577 246.5106137 57.95996909 240.3883531 46.23168945 237.38842773 C32.23980874 234.76598746 18.25483556 238.75006214 7.5012207 248.27124023 Z M-29.4519043 321.04077148 C-30.16684052 321.3440033 -30.88177673 321.64723511 -31.61837769 321.95965576 C-33.18624154 322.62482785 -34.75346246 323.29151688 -36.32012939 323.95950317 C-40.62870234 325.79583248 -44.94266411 327.61940846 -49.2565918 329.44311523 C-50.17072845 329.82975845 -51.08486511 330.21640167 -52.02670288 330.61476135 C-62.5546797 335.06127206 -73.1196005 339.41770033 -83.6862793 343.77124023 C-87.54578528 345.36206849 -91.40515417 346.95322889 -95.2644043 348.54467773 C-96.20647736 348.93313873 -97.14855042 349.32159973 -98.11917114 349.72183228 C-107.90088586 353.7575386 -117.6701385 357.82301459 -127.4362793 361.89624023 C-128.21924377 362.22278595 -129.00220825 362.54933167 -129.80889893 362.88577271 C-134.06012145 364.65906833 -138.31091478 366.43338885 -142.5612793 368.20874023 C-138.84095005 375.8990898 -135.17013344 383.42703911 -130.1862793 390.39624023 C-129.71641602 391.06494141 -129.24655273 391.73364258 -128.76245117 392.42260742 C-121.46318704 402.69985279 -113.18657445 412.04271557 -104.5612793 421.20874023 C-103.94510742 421.86745117 -103.32893555 422.52616211 -102.6940918 423.20483398 C-89.83481855 436.52556441 -70.39447192 452.26434269 -52.5612793 458.20874023 C-42.42071738 434.05686513 -32.3198315 409.88944496 -22.3659668 385.65991211 C-18.77657858 376.93124038 -15.15846044 368.21986981 -11.4050293 359.56030273 C-10.7756913 358.0991205 -10.14653448 356.63786022 -9.51757812 355.17651367 C-8.3753804 352.52354178 -7.21406555 349.88019797 -6.04052734 347.2409668 C-5.54593018 346.09337891 -5.05133301 344.94579102 -4.54174805 343.76342773 C-4.10757568 342.77842285 -3.67340332 341.79341797 -3.22607422 340.77856445 C-2.31831428 338.24377134 -2.31831428 338.24377134 -3.33349609 335.96191406 C-4.75237662 333.93586892 -6.26128744 332.57427152 -8.1862793 331.02124023 C-12.19673185 327.65480196 -15.53827782 323.93937347 -18.8972168 319.93139648 C-19.44635742 319.36291992 -19.99549805 318.79444336 -20.5612793 318.20874023 C-23.77761916 318.20874023 -26.5355381 319.78897878 -29.4519043 321.04077148 Z M95.4387207 318.20874023 C93.64428269 320.04781601 91.94166075 321.90294384 90.2512207 323.83374023 C86.22793067 328.33834208 82.16688014 332.42621268 77.4387207 336.20874023 C81.74999167 347.98233343 86.41756573 359.578487 91.2512207 371.14624023 C91.99378237 372.92924007 92.73604477 374.71236457 93.47802734 376.49560547 C95.01946156 380.1996083 96.56217103 383.90307618 98.10571289 387.60620117 C101.51286967 395.78387542 104.90152969 403.96921344 108.29187012 412.15386963 C114.65517518 427.51341095 121.03316296 442.86676596 127.4387207 458.20874023 C147.63313286 448.96348592 164.34960454 435.3487143 180.4387207 420.20874023 C181.09743164 419.59256836 181.75614258 418.97639648 182.43481445 418.34155273 C195.75554488 405.48227948 211.49432316 386.04193286 217.4387207 368.20874023 C193.28744785 358.06843118 169.11323267 347.98672061 144.89428711 338.0090332 C136.15766579 334.40807485 127.42654179 330.79591959 118.7199707 327.12280273 C117.97978699 326.81077408 117.23960327 326.49874542 116.47698975 326.17726135 C113.08078998 324.74468228 109.68651673 323.3077897 106.29516602 321.86376953 C105.14113281 321.37561768 103.98709961 320.88746582 102.7980957 320.38452148 C101.30487793 319.74897339 101.30487793 319.74897339 99.78149414 319.10058594 C97.54499418 318.09014938 97.54499418 318.09014938 95.4387207 318.20874023 Z M24.4387207 347.20874023 C17.00178644 364.32953964 9.80289642 381.5375395 2.74023438 398.81567383 C2.05643969 400.48838029 1.37260139 402.16106893 0.6887207 403.83374023 C0.34613724 404.67168121 0.00355377 405.50962219 -0.34941101 406.37295532 C-4.45009088 416.39414235 -8.59829655 426.3956008 -12.7487793 436.39624023 C-13.28575943 437.69046402 -13.28575943 437.69046402 -13.83358765 439.01083374 C-14.52849527 440.68556895 -15.2236334 442.36020854 -15.91902161 444.03474426 C-16.57379557 445.61271276 -17.22746825 447.19113877 -17.87992859 448.77006531 C-19.28804422 452.17295552 -20.70913937 455.56694777 -22.19262695 458.93774414 C-22.89524658 460.55108643 -22.89524658 460.55108643 -23.61206055 462.19702148 C-24.21981323 463.56080933 -24.21981323 463.56080933 -24.83984375 464.95214844 C-25.84663721 467.33616636 -25.84663721 467.33616636 -24.5612793 470.20874023 C-22.70936643 471.13827011 -22.70936643 471.13827011 -20.3894043 471.70874023 C-19.50816895 471.95470947 -18.62693359 472.20067871 -17.71899414 472.45410156 C-16.75944824 472.70313232 -15.79990234 472.95216309 -14.8112793 473.20874023 C-13.32748779 473.60065552 -13.32748779 473.60065552 -11.8137207 474.00048828 C-1.81854682 476.54573954 8.18223296 478.18151111 18.4387207 479.20874023 C19.63948242 479.33055664 19.63948242 479.33055664 20.86450195 479.45483398 C42.45845289 481.46932695 64.41423249 479.36861351 85.4387207 474.20874023 C86.16027344 474.03552246 86.88182617 473.86230469 87.62524414 473.68383789 C93.63003046 472.25188893 93.63003046 472.25188893 99.4387207 470.20874023 C100.84761156 465.98206766 99.0931593 463.28998401 97.4152832 459.38842773 C97.08292664 458.59451126 96.75057007 457.80059479 96.40814209 456.98262024 C95.30206747 454.34589286 94.1827999 451.71497144 93.0637207 449.08374023 C92.28488524 447.23300658 91.50706814 445.38184408 90.73022461 443.53027344 C89.111597 439.67451875 87.48855891 435.82066447 85.86254883 431.96801758 C82.49247512 423.97306618 79.17931041 415.95468178 75.86471558 407.93661499 C74.11850536 403.71582526 72.36608714 399.497614 70.61450195 395.27905273 C68.1294199 389.29290898 65.65170919 383.3038024 63.18267822 377.3110199 C61.79006631 373.93287549 60.3935879 370.55633776 58.99639893 367.18008423 C58.33799242 365.5864013 57.68134772 363.99198926 57.02655029 362.39682007 C56.12808692 360.20853329 55.22358868 358.02283731 54.31762695 355.83764648 C54.05386765 355.19080902 53.79010834 354.54397156 53.51835632 353.87753296 C52.39538744 351.1843478 51.52481008 349.29482961 49.4387207 347.20874023 C46.8171565 346.93046772 46.8171565 346.93046772 43.7746582 347.01342773 C42.09243164 347.0230957 42.09243164 347.0230957 40.3762207 347.03295898 C39.2005957 347.0497168 38.0249707 347.06647461 36.8137207 347.08374023 C35.03868164 347.09727539 35.03868164 347.09727539 33.2277832 347.11108398 C30.29789548 347.13471211 27.3684073 347.16765509 24.4387207 347.20874023 Z " fill="#000000" transform="translate(218.561279296875,1.791259765625)"/>
<path d="M0 0 C3.28636404 1.43778427 5.70241762 3.24290115 8 6 C9.72565655 11.17696965 9.87335275 16.76809853 7.875 21.875 C4.85190292 25.30117669 2.22526146 27.67904883 -2.4375 28.3515625 C-7.39431511 28.51383919 -11.0924861 28.3328795 -15 25 C-15.763125 24.360625 -16.52625 23.72125 -17.3125 23.0625 C-19.99716232 18.19033505 -19.97415094 13.42229604 -19 8 C-14.46519626 -0.14329086 -8.7533936 -0.72205996 0 0 Z " fill="#000000" transform="translate(261,266)"/>
</svg>
